<svg width="170" height="58" viewBox="0 0 170 58" fill="none" xmlns="http://www.w3.org/2000/svg">
<path d="M29 58C13 58 0 45 0 29C0 13 13 0 29 0C45 0 58 13 58 29C58 45 45 58 29 58Z" fill="url(#paint0_linear_3_4)"/>
<path fill-rule="evenodd" clip-rule="evenodd" d="M75.204 33.8H80.6202C80.6202 35.9 82.6099 37 84.8206 37C86.8102 37 88.7999 36 88.7999 34.3C88.7999 32.6 86.4786 32.1 83.8258 31.6C80.0675 30.7 75.5356 29.7 75.5356 24.9C75.5356 20.6 79.0727 18.2 84.489 18.2C90.2368 18.2 93.4424 20.9 93.4424 25.4H88.1366C88.1366 23.5 86.3681 22.6 84.3784 22.6C82.6099 22.6 80.9518 23.2 80.9518 24.7C80.9518 26.3 83.052 26.8 85.7049 27.3C89.4631 28.2 94.2161 29.3 94.2161 34.3C94.2161 39.1 89.9052 41.4 84.8206 41.4C79.0727 41.4 75.204 38.6 75.204 33.8ZM118.976 23.7V41H114.997L114.444 39.4C112.897 40.7 110.686 41.5 108.254 41.5C102.617 41.5 98.3059 37.6 98.3059 32.4C98.3059 27.1 102.617 23.2 108.254 23.2C110.796 23.2 112.897 24 114.555 25.4L115.107 23.7H118.976ZM113.891 32.4C113.891 29.6 111.791 27.6 108.696 27.6C105.712 27.6 103.501 29.6 103.501 32.4C103.501 35 105.712 37.1 108.696 37.1C111.791 37.1 113.891 35.1 113.891 32.4ZM144.841 23.7V41H140.752L140.309 39.4C138.651 40.7 136.551 41.5 134.119 41.5C128.372 41.5 124.171 37.6 124.171 32.4C124.171 27.1 128.372 23.2 134.119 23.2C136.662 23.2 138.762 24 140.42 25.4L140.973 23.7H144.841ZM139.757 32.4C139.757 29.6 137.546 27.6 134.562 27.6C131.577 27.6 129.366 29.6 129.366 32.4C129.366 35 131.577 37.1 134.562 37.1C137.546 37.1 139.757 35.1 139.757 32.4ZM150.147 33.8H155.563C155.563 35.9 157.553 37 159.764 37C161.753 37 163.743 36 163.743 34.3C163.743 32.6 161.532 32.1 158.88 31.6C155.121 30.7 150.589 29.7 150.589 24.9C150.589 20.6 154.016 18.2 159.543 18.2C165.18 18.2 168.496 20.9 168.496 25.4H163.19C163.19 23.5 161.422 22.6 159.432 22.6C157.664 22.6 155.895 23.2 155.895 24.7C155.895 26.3 157.995 26.8 160.648 27.3C164.406 28.2 169.159 29.3 169.159 34.3C169.159 39.1 164.959 41.4 159.764 41.4C154.126 41.4 150.147 38.6 150.147 33.8ZM45.0277 18.6V30.9C45.0277 31.4 44.475 31.6 44.0329 31.3L39.9431 27.6L33.4215 33.4C31.874 34.8 29.5527 34.8 28.0052 33.4L24.0259 29.8L19.3834 34C18.7202 34.7 17.6149 35 16.7306 35C15.8463 35 14.8515 34.7 14.0777 34C12.6408 32.6 12.6408 30.5 14.0777 29.1L21.3731 22.6C22.81 21.4 25.3524 21.4 26.7893 22.6L30.7686 26.2L34.5268 22.8L30.1054 18.9C29.7738 18.6 29.9949 18 30.5475 18H44.475C44.8067 18 45.0277 18.2 45.0277 18.6Z" fill="white"/>
<defs>
<linearGradient id="paint0_linear_3_4" x1="-46.925" y1="86.169" x2="1586.88" y2="4489.82" gradientUnits="userSpaceOnUse">
<stop stop-color="#CE5BEB"/>
<stop offset="1" stop-color="#5B61EB"/>
</linearGradient>
</defs>
</svg>
