<svg width="157" height="59" viewBox="0 0 157 59" fill="none" xmlns="http://www.w3.org/2000/svg">
<g clip-path="url(#clip0_0_271)">
<mask id="mask0_0_271" style="mask-type:luminance" maskUnits="userSpaceOnUse" x="-166" y="-6751" width="1587" height="7502">
<path d="M-166 -6751H1421V751H-166V-6751Z" fill="white"/>
</mask>
<g mask="url(#mask0_0_271)">
<path d="M30 59C14 59 1 46 1 30C1 14 14 1 30 1C46 1 59 14 59 30C59 46 46 59 30 59Z" fill="url(#paint0_linear_0_271)"/>
<path fill-rule="evenodd" clip-rule="evenodd" d="M71.3 36.7999H76.2C76.2 38.9 78 40 80 40C81.8 40 83.6 39 83.6 37.2999C83.6 35.5999 81.5 35.0999 79.1 34.5999C75.7 33.6999 71.6 32.7 71.6 27.9C71.6 23.5999 74.8 21.2 79.7 21.2C84.9 21.2 87.8 23.9 87.8 28.4H83C83 26.4999 81.4 25.6 79.6 25.6C78 25.6 76.5 26.2 76.5 27.7C76.5 29.3 78.4 29.7999 80.8 30.2999C84.2 31.1999 88.5 32.2999 88.5 37.2999C88.5 42.0999 84.6 44.4 80 44.4C74.8 44.4 71.3 41.5999 71.3 36.7999ZM110.9 26.7V44H107.3L106.8 42.4C105.4 43.7 103.4 44.5 101.2 44.5C96.1 44.5 92.2 40.6 92.2 35.4C92.2 30.1 96.1 26.2 101.2 26.2C103.5 26.2 105.4 26.9999 106.9 28.4L107.4 26.7H110.9ZM106.3 35.4C106.3 32.6 104.4 30.6 101.6 30.6C98.9 30.6 96.9 32.6 96.9 35.4C96.9 38 98.9 40.0999 101.6 40.0999C104.4 40.0999 106.3 38.1 106.3 35.4ZM134.3 26.7V44H130.6L130.2 42.4C128.7 43.7 126.8 44.5 124.6 44.5C119.4 44.5 115.6 40.6 115.6 35.4C115.6 30.1 119.4 26.2 124.6 26.2C126.9 26.2 128.8 26.9999 130.3 28.4L130.8 26.7H134.3ZM129.7 35.4C129.7 32.6 127.7 30.6 125 30.6C122.3 30.6 120.3 32.6 120.3 35.4C120.3 38 122.3 40.0999 125 40.0999C127.7 40.0999 129.7 38.1 129.7 35.4ZM139.1 36.7999H144C144 38.9 145.8 40 147.8 40C149.6 40 151.4 39 151.4 37.2999C151.4 35.5999 149.4 35.0999 147 34.5999C143.6 33.6999 139.5 32.7 139.5 27.9C139.5 23.5999 142.6 21.2 147.6 21.2C152.7 21.2 155.7 23.9 155.7 28.4H150.9C150.9 26.4999 149.3 25.6 147.5 25.6C145.9 25.6 144.3 26.2 144.3 27.7C144.3 29.3 146.2 29.7999 148.6 30.2999C152 31.1999 156.3 32.2999 156.3 37.2999C156.3 42.0999 152.5 44.4 147.8 44.4C142.7 44.4 139.1 41.5999 139.1 36.7999Z" fill="#2E526B"/>
<path d="M43.3999 21H30.8999C30.3999 21 30.1999 21.6 30.4999 21.9L34.4999 25.8L31.0999 29.2L27.4999 25.6C26.1999 24.4 23.7999 24.4 22.5999 25.6L15.9999 32.1C14.6999 33.5 14.6999 35.6 15.9999 37C16.6999 37.7 17.5999 38 18.3999 38C19.1999 38 20.1999 37.7 20.7999 37L24.9999 32.8L28.5999 36.4C29.9999 37.8 32.0999 37.8 33.4999 36.4L39.3999 30.6L43.0999 34.3C43.3999 34.6 43.9999 34.4 43.9999 33.9V21.6C43.9999 21.2 43.7999 21 43.3999 21Z" fill="white"/>
</g>
</g>
<defs>
<linearGradient id="paint0_linear_0_271" x1="-45.925" y1="87.169" x2="1587.88" y2="4490.82" gradientUnits="userSpaceOnUse">
<stop stop-color="#CE5BEB"/>
<stop offset="1" stop-color="#5B61EB"/>
</linearGradient>
<clipPath id="clip0_0_271">
<rect width="157" height="59" fill="white"/>
</clipPath>
</defs>
</svg>
