<svg width="124" height="39" viewBox="0 0 124 39" fill="none" xmlns="http://www.w3.org/2000/svg">
<path d="M35.7288 1.95228C37.0676 -0.522315 32.7297 0.173666 32.7297 0.173666C31.1767 0.173666 30.4805 1.97806 30.1592 2.4936L25.4732 11.3867C24.5896 12.856 21.6709 19.1456 20.7069 20.5376C20.6266 19.1198 20.7337 16.2843 20.7605 15.6141C20.9479 12.9333 21.1354 10.8969 21.4299 8.44811C21.6441 6.5406 22.0725 4.40111 21.6709 2.4936C21.4031 1.30786 21.0015 1.23053 19.2342 1.05009C17.3866 0.869647 16.1281 3.44735 15.5122 4.65888C13.2629 9.14409 10.7459 13.5262 8.73765 18.1145C8.14856 19.4549 7.42558 20.7953 6.80971 22.11C6.08674 23.7081 5.41731 25.2805 4.64078 26.8529C3.8107 28.5027 1.21334 33.9159 0.490365 35.6171C-0.312942 37.4731 -0.473603 38.9682 2.73962 38.8908C3.24839 38.8908 4.37302 38.9939 5.76541 37.5504C6.86327 36.4162 7.07748 35.3594 7.72013 33.787C10.0229 28.2191 11.6563 24.533 14.1734 19.0167C14.4144 18.4754 14.9767 16.903 15.539 15.6915C15.5122 17.4185 15.2177 19.4807 15.0838 20.8469C14.6553 25.8476 14.3608 30.6679 13.9056 35.6171C13.852 36.2873 13.6646 37.0864 13.9859 37.7051C14.3072 38.3237 15.1106 38.4784 15.7532 38.5557C18.3238 38.8651 18.5915 37.6278 19.3949 35.9265C20.1178 34.4056 20.5463 33.1683 21.1889 31.6217C23.1704 26.8529 25.259 22.1357 27.5618 17.4959C28.1509 16.3101 28.74 15.1501 29.3826 13.9902C30.5608 11.8507 31.5248 9.84007 32.8101 7.46858C33.774 5.76729 34.7112 3.83401 35.7288 1.95228ZM123.959 15.3821C123.664 12.5209 119.594 13.9644 117.157 14.4026C116.247 14.5573 113.435 15.0728 110.195 15.6657C110.061 12.4436 110.115 13.088 110.088 11.1289C110.008 8.29344 109.847 6.07661 109.687 3.57624C109.579 2.00384 109.338 -0.187214 106.393 0.225219C102.966 0.689206 102.403 2.33894 101.493 4.32377C99.1097 9.50497 99.19 9.53074 96.4855 15.3048C96.2713 15.743 95.2806 18.063 95.1199 18.5269C95.0128 18.5527 94.7986 18.6043 94.5308 18.6816C93.433 18.9136 92.0941 19.1971 90.6214 19.5065L90.6482 19.3776C90.9963 16.7483 91.4247 14.1191 91.7996 11.4898C92.1477 9.09253 92.5226 5.17442 92.8171 2.77715C93.1384 0.199442 90.0323 0.250996 90.0323 0.250996C88.1312 0.147887 87.4082 0.689206 86.2032 2.18428C84.1414 4.76198 81.6511 7.54591 79.4554 10.3814C75.4657 15.511 72.547 19.3776 68.9321 24.533C67.8878 26.0281 66.2812 28.2965 64.8888 30.0751C63.9516 28.2965 63.1483 26.3374 62.3718 24.533C61.2471 21.9553 60.4171 20.3571 59.8815 18.6558C59.3995 17.1608 59.9886 16.9545 61.14 16.1039C64.4604 13.6809 68.2091 12.0053 71.6098 9.68541C74.0197 8.03567 76.9116 6.2055 79.268 4.50421C79.268 4.50421 80.6336 3.7309 81.3834 2.75137C82.3206 1.51407 79.6696 0.225219 79.6696 0.225219C78.1701 -0.00677442 77.3401 0.328328 76.2958 0.792315C75.2247 1.2563 73.8323 2.31316 72.9219 3.00914C70.9136 4.50421 68.3698 6.28283 66.3883 7.7779C63.9516 9.60808 62.2914 10.7423 59.6138 12.2631L66.4151 2.46783C68.6376 -0.290322 62.7466 -1.06363 60.4974 1.84918C58.4088 4.45266 56.9896 6.74682 55.3562 9.11831C51.42 14.7635 48.18 20.6922 44.94 26.9045C43.7083 29.276 42.5033 31.7506 41.3787 34.1994C40.8431 35.3852 39.2633 38.1175 41.4322 38.4011C46.0646 38.9682 46.8144 36.8544 47.8587 34.3025C49.5724 30.1008 50.1347 29.3275 51.2326 26.7241C52.3037 24.1979 53.0802 22.7544 54.2852 20.5891C54.3119 20.5633 54.66 20.022 54.66 20.022C54.8742 20.4602 56.2934 24.997 56.4809 25.5125C57.4448 27.9614 59.1318 33.6839 60.0957 36.2873C60.7919 38.4526 60.9794 39.0713 64.0052 38.9939C65.5047 38.9682 66.1473 38.4011 67.1381 36.5967C68.1288 34.7923 72.4131 27.1107 72.4131 27.1107C73.6984 26.9045 75.546 26.5952 76.751 26.389C76.9652 26.3632 77.4472 26.2601 78.1166 26.1312C78.5718 26.0796 78.9467 26.0023 79.2412 25.925C79.268 25.925 79.268 25.925 79.2948 25.8992C80.473 25.6672 81.9725 25.3836 83.6059 25.0743C83.3113 26.4921 82.4009 29.6111 82.2135 30.4102C82.2135 30.4102 80.232 37.834 82.8026 38.2206C84.4092 38.4526 85.2392 38.1948 85.2392 38.1948C88.2383 37.8597 88.2918 33.9674 88.2918 33.9674L89.9252 23.8886C91.1034 23.6566 92.2816 23.4246 93.433 23.2184L89.8984 34.7149C89.3897 36.3389 89.0148 38.4268 92.0406 38.4268C94.5041 38.5557 94.6647 37.0607 94.6647 37.0607C94.7183 36.8287 96.673 30.7711 97.155 28.6058C97.4763 27.2138 98.6277 23.6308 99.0829 22.1873C100.368 21.9553 101.332 21.7749 101.787 21.6975C102.323 21.6202 103.367 21.4398 104.733 21.2335C104.706 22.5739 104.733 24.4299 104.76 24.6877C105.054 28.7604 104.733 32.9879 105.616 36.9833C105.75 37.6278 106.018 38.4526 106.875 38.4526C107.893 38.4526 108.214 38.3495 109.285 38.2722C112.391 38.0144 111.829 34.9985 111.641 33.091C111.427 30.9773 111.213 29.1987 110.918 27.0849C110.677 25.3579 110.517 23.0895 110.49 20.3571L110.49 20.3056C115.577 19.4807 121.067 18.5785 121.87 18.4496C123.155 18.1145 124.226 18.2176 123.959 15.3821ZM84.195 20.7953C84.195 20.8211 84.1682 20.8211 84.1682 20.8469C80.6068 21.5944 77.2597 22.3162 75.3854 22.7286C77.2597 19.7127 85.507 8.73165 86.7655 7.4428C86.0693 10.8454 84.9447 17.1608 84.195 20.7953ZM104.76 16.4648L104.76 16.6452C103.046 16.9545 101.439 17.2639 100.154 17.4959C101.787 13.4231 103.501 8.42233 104.519 5.89618C104.438 7.7779 104.84 14.6088 104.76 16.4648ZM54.8207 4.32378C55.3562 3.37002 56.5612 1.4883 55.0617 0.766538C54.178 0.354105 52.9999 0.0963345 52.0894 0.534545C51.3397 0.921201 50.7774 1.66874 50.4025 2.36472L44.6722 11.0516C43.7351 12.2889 42.8514 13.8355 40.9503 14.0417C39.6917 14.1706 38.7813 13.6551 38.8081 12.5724C38.8349 11.464 39.5043 9.99473 40.0131 9.04098C41.5126 6.30861 41.7 5.38064 43.146 2.67404C44.5384 0.0705571 39.9863 -0.522315 38.8617 1.35941C38.0584 2.69982 36.5053 5.22597 36.1572 6.07662C35.5145 7.62324 30.6947 14.9955 32.7833 17.9083C35.461 21.2078 42.5836 16.0008 38.942 22.0069C35.9965 26.8272 34.1489 29.5853 31.5783 34.0447C31.016 34.9985 30.3198 35.9522 30.1324 37.0864C29.8646 38.6846 32.1407 38.6588 33.1314 38.6073C34.8719 38.4784 35.702 37.7051 36.3982 36.1842C36.7731 35.3852 37.2818 34.4056 37.6567 33.6065C41.0306 26.5178 44.6187 20.3571 49.0637 13.5004C51.179 10.2525 53.0534 7.46858 54.8207 4.32378Z" fill="#FC2779"/>
</svg>
