<svg width="125" height="41" viewBox="0 0 125 41" fill="none" xmlns="http://www.w3.org/2000/svg">
<g clip-path="url(#clip0_0_44)">
<path fill-rule="evenodd" clip-rule="evenodd" d="M14.2397 40.0023C13.7194 39.9693 13.2276 39.6323 12.9812 38.9223C12.7349 38.2263 12.8304 37.5483 13.2946 36.9983L15.426 34.5203C15.664 34.2593 15.6916 34.1033 15.4462 33.8233L12.1635 30.0093C11.9172 29.7153 11.7823 29.7723 11.5644 30.0333L9.43718 32.5113C8.52812 33.5013 7.12726 32.9853 6.88094 31.5783C6.82697 31.312 6.8327 31.0335 6.89757 30.7707C6.96243 30.5079 7.08413 30.2701 7.25042 30.0813L10.7987 25.9503C10.9315 25.7926 11.089 25.6677 11.2623 25.5828C11.4356 25.4979 11.6212 25.4546 11.8086 25.4555C11.9959 25.4563 12.1812 25.5012 12.354 25.5877C12.5268 25.6742 12.6835 25.8004 12.8153 25.9593L18.9399 33.0843C19.5072 33.7473 19.5072 34.7373 18.9475 35.4153L15.3992 39.5463C15.1211 39.8683 14.76 40.0153 14.2405 40.0013L14.2397 40.0023ZM23.0227 20.8123C23.0026 22.6363 22.6063 24.3373 21.745 25.8433C21.5071 26.2603 21.5666 26.4643 21.8481 26.7533C22.2645 27.1793 22.6415 27.6633 23.0311 28.1273C23.6385 28.8713 23.6586 29.8853 23.099 30.6053C22.5468 31.2923 21.6026 31.3913 21.0069 30.7383L18.268 27.5503C17.6924 26.8443 17.7678 25.8403 18.4113 25.0873C19.2488 24.1363 19.7894 22.8727 19.9437 21.5053C20.3132 18.3453 18.2688 15.2473 15.581 14.9013C13.8383 14.6783 12.3537 15.2713 11.1036 16.7493L3.59745 25.4803C3.22042 25.9303 2.78391 26.2003 2.2435 26.1243C1.63607 26.0343 1.18364 25.6643 0.97334 24.9543C0.763043 24.2443 0.905475 23.6133 1.35037 23.0973L5.17258 18.6533L9.26877 13.9063C13.7738 8.88931 21.2599 11.4613 22.7848 18.5443C22.94 19.2865 23.0199 20.0473 23.0227 20.8123Z" fill="#10847E"/>
<path d="M31.629 16.5982L36.801 16.5982C38.0795 16.5982 39.1151 17.0672 39.9085 18.0102C40.702 18.9532 41.0991 20.1852 41.0991 21.7202C41.0991 23.2362 40.6902 24.4682 39.8683 25.4012C39.0464 26.3342 37.9832 26.8032 36.6728 26.8032L34.2255 26.8032L34.2255 31.3992L31.6299 31.3992L31.6299 16.5992L31.629 16.5982ZM34.2247 19.1372L34.2247 24.2872L36.1064 24.2872C36.8563 24.2872 37.4361 24.0642 37.8449 23.6282C38.2538 23.1922 38.4599 22.5532 38.4599 21.7232C38.4599 20.8932 38.2572 20.2502 37.8483 19.8042C37.4394 19.3582 36.8638 19.1362 36.1098 19.1362L34.2255 19.1362L34.2247 19.1372ZM42.624 31.4042L42.624 15.7702L45.0814 15.7702L45.0814 21.9432L45.2364 21.9432C45.4493 21.3093 45.8281 20.7744 46.3163 20.4182C46.8123 20.0532 47.408 19.8682 48.0984 19.8682C49.1222 19.8682 49.9207 20.2382 50.4921 20.9772C51.0635 21.7162 51.3492 22.7632 51.3492 24.1182L51.3492 31.4002L48.8483 31.4002L48.8483 24.8292C48.8483 24.0472 48.7017 23.4602 48.4 23.0522C48.0984 22.6442 47.6694 22.4462 47.1022 22.4462C46.4831 22.4462 45.9988 22.6692 45.6494 23.1192C45.3 23.5692 45.1258 24.1662 45.1258 24.9102L45.1258 31.4052L42.6248 31.4052L42.624 31.4042ZM56.0143 31.5802C55.0977 31.5802 54.3512 31.2672 53.7756 30.6472C53.2 30.0272 52.9101 29.2022 52.9101 28.1742C52.9101 27.1552 53.2277 26.3502 53.8585 25.7672C54.4894 25.1842 55.3985 24.8482 56.5773 24.7672L58.8713 24.6012L58.8713 23.6772C58.8713 23.2032 58.7322 22.8382 58.4583 22.5832C58.1843 22.3282 57.7872 22.1992 57.2719 22.1992C56.3427 22.1992 55.7755 22.5502 55.561 23.2462L53.2587 23.2462C53.3382 22.1992 53.7547 21.3702 54.5012 20.7592C55.2477 20.1482 56.2196 19.8402 57.411 19.8402C58.661 19.8402 59.6262 20.1762 60.3124 20.8442C60.9986 21.5122 61.3404 22.4602 61.3404 23.6772L61.3404 31.4042L58.9191 31.4042L58.9191 29.9262L58.7641 29.9262C58.5178 30.4472 58.1491 30.8502 57.6648 31.1442C57.1806 31.4382 56.6301 31.5802 56.0143 31.5802ZM56.8396 29.3342C57.4194 29.3342 57.9036 29.1402 58.2924 28.7472C58.6811 28.3542 58.8755 27.8752 58.8755 27.3022L58.8755 26.4732L56.9585 26.6152C55.8911 26.7052 55.3591 27.1602 55.3591 27.9792C55.3591 28.3962 55.494 28.7282 55.768 28.9692C56.042 29.2102 56.3989 29.3342 56.8396 29.3342ZM63.4476 31.4042L63.4476 20.0912L65.869 20.0912L65.869 21.8962L66.0239 21.8962C66.1513 21.3232 66.437 20.8442 66.8894 20.4702C67.3419 20.0962 67.8622 19.9062 68.457 19.9062C68.886 19.9062 69.2111 19.9532 69.4373 20.0482L69.4373 22.7672C69.1709 22.6442 68.7779 22.5822 68.2501 22.5822C67.5555 22.5822 67 22.8092 66.5786 23.2692C66.1572 23.7292 65.9477 24.3492 65.9477 25.1362L65.9477 31.4042L63.4476 31.4042ZM70.8801 31.4042L70.8801 20.0902L73.3014 20.0902L73.3014 21.9382L73.4564 21.9382C73.6508 21.2892 73.9801 20.7772 74.4484 20.4032C74.9168 20.0292 75.4605 19.8442 76.0755 19.8442C76.7349 19.8442 77.2904 20.0292 77.7386 20.3932C78.1868 20.7572 78.5086 21.2742 78.6954 21.9372L78.8504 21.9372C79.0724 21.3022 79.4419 20.7952 79.9497 20.4112C80.4574 20.0272 81.0455 19.8432 81.7041 19.8432C82.6483 19.8432 83.399 20.1842 83.947 20.8712C84.4949 21.5582 84.7722 22.4772 84.7722 23.6422L84.7722 31.4072L82.2721 31.4072L82.2721 24.4302C82.2721 23.0892 81.7443 22.4212 80.692 22.4212C80.1876 22.4212 79.7829 22.6152 79.4813 22.9942C79.1797 23.3732 79.0247 23.8752 79.0247 24.4822L79.0247 31.4082L76.6151 31.4082L76.6151 24.3112C76.6151 23.7142 76.476 23.2502 76.202 22.9232C75.928 22.5962 75.5435 22.4252 75.0508 22.4252C74.8248 22.4164 74.6 22.467 74.3922 22.5735C74.1844 22.6799 73.9988 22.8396 73.8485 23.0412C73.5352 23.4532 73.376 23.9702 73.376 24.6002L73.376 31.4132L70.8792 31.4042L70.8801 31.4042ZM95.3148 28.7502L95.3148 31.3982L87.0981 31.3982L87.0981 16.5942L95.3148 16.5942L95.3148 19.2422L89.6945 19.2422L89.6945 22.7002L94.9972 22.7002L94.9972 25.1492L89.6945 25.1492L89.6945 28.7502L95.3148 28.7502ZM99.6883 31.5802C98.7717 31.5802 98.0252 31.2672 97.4496 30.6472C96.874 30.0272 96.5849 29.2022 96.5849 28.1742C96.5849 27.1552 96.9025 26.3502 97.5333 25.7672C98.1642 25.1842 99.0733 24.8482 100.252 24.7672L102.546 24.6012L102.546 23.6772C102.546 23.2032 102.408 22.8382 102.134 22.5832C101.86 22.3282 101.463 22.1992 100.947 22.1992C100.018 22.1992 99.4503 22.5502 99.2358 23.2462L96.9335 23.2462C97.0131 22.1992 97.4303 21.3702 98.176 20.7592C98.9216 20.1482 99.8952 19.8402 101.086 19.8402C102.336 19.8402 103.301 20.1762 103.987 20.8442C104.673 21.5122 105.015 22.4602 105.015 23.6772L105.015 31.4042L102.594 31.4042L102.594 29.9262L102.439 29.9262C102.193 30.4472 101.824 30.8502 101.34 31.1442C100.855 31.4382 100.304 31.5802 99.6883 31.5802ZM100.514 29.3342C101.093 29.3342 101.578 29.1402 101.967 28.7472C102.357 28.3542 102.55 27.8752 102.55 27.3022L102.55 26.4732L100.633 26.6152C99.5651 26.7052 99.0339 27.1602 99.0339 27.9792C99.0339 28.3962 99.1688 28.7282 99.4428 28.9692C99.7168 29.2102 100.074 29.3342 100.514 29.3342ZM106.56 23.4122C106.549 22.907 106.643 22.4064 106.833 21.9545C107.022 21.5027 107.302 21.1135 107.648 20.8212C108.374 20.1682 109.327 19.8402 110.506 19.8402C111.709 19.8402 112.653 20.1292 113.336 20.7122C114.019 21.2952 114.396 22.1242 114.467 23.2042L112.153 23.2042C112.123 23.0237 112.062 22.8528 111.972 22.7031C111.883 22.5535 111.767 22.4287 111.633 22.3372C111.351 22.1282 110.978 22.0242 110.517 22.0242C110.065 22.0242 109.692 22.1382 109.402 22.3602C109.112 22.5822 108.966 22.8722 108.966 23.2272C108.966 23.5022 109.069 23.7292 109.276 23.9092C109.483 24.0892 109.803 24.2412 110.248 24.3542L112.026 24.8182C112.947 25.0602 113.622 25.4242 114.05 25.9172C114.479 26.4102 114.69 27.0782 114.69 27.9162C114.69 29.0392 114.304 29.9392 113.539 30.6262C112.769 31.3082 111.764 31.6542 110.514 31.6542C109.264 31.6542 108.275 31.3602 107.549 30.7732C106.822 30.1862 106.414 29.3472 106.326 28.2622L108.767 28.2622C108.97 29.0722 109.565 29.4702 110.565 29.4702C111.054 29.4702 111.446 29.3562 111.752 29.1342C112.058 28.9122 112.209 28.6222 112.209 28.2582C112.211 28.1259 112.186 27.995 112.137 27.8764C112.088 27.7577 112.016 27.6548 111.927 27.5762C111.736 27.4012 111.435 27.2592 111.014 27.1502L109.295 26.6862C108.374 26.4442 107.687 26.0612 107.235 25.5202C106.782 24.9792 106.56 24.2842 106.56 23.4122ZM116.949 35.5202C116.417 35.5202 116.1 35.5102 115.997 35.4922L115.997 33.0902C116.052 33.1042 116.243 33.1092 116.565 33.1092C117.041 33.1092 117.414 33.0102 117.68 32.8152C117.946 32.6202 118.137 32.3132 118.24 31.8872L118.327 31.4792L115.001 20.0902L117.76 20.0902L119.752 28.6652L119.907 28.6652L121.899 20.0902L124.547 20.0902L121.28 31.5792C120.879 33.0292 120.355 34.0472 119.704 34.6352C119.053 35.2232 118.137 35.5202 116.949 35.5202ZM32.4786 9.79324L31.4782 9.79324L33.0894 1.54524L30.7233 1.54524L30.9135 0.597244L36.6494 0.597244L36.4751 1.54524L34.0973 1.54524L32.4786 9.79324ZM38.5177 2.77324C38.8551 2.76699 39.187 2.87556 39.4745 3.08624C39.7527 3.29424 39.9705 3.59324 40.1255 3.98124L40.1892 3.98124L40.578 2.90124L41.3161 2.90124L39.9588 9.79424L39.1847 9.79424L39.3355 8.48224L39.2877 8.48224C38.5931 9.44424 37.8584 9.92224 37.0926 9.92224C36.553 9.92224 36.1282 9.71424 35.8224 9.30124C35.5166 8.88824 35.3616 8.31624 35.3616 7.59524C35.3616 6.72324 35.5007 5.91324 35.7747 5.16924C36.0486 4.42524 36.4298 3.83824 36.9175 3.41624C37.4051 2.99424 37.938 2.77224 38.5169 2.77224L38.5177 2.77324ZM37.4101 9.04624C37.7871 9.04624 38.16 8.85224 38.5337 8.46324C38.9073 8.07424 39.2081 7.56824 39.4427 6.94724C39.6773 6.32624 39.7921 5.70124 39.7921 5.07624C39.7921 4.64524 39.6848 4.29924 39.467 4.04324C39.2492 3.78724 38.9626 3.65924 38.6099 3.65924C38.2052 3.65924 37.8315 3.83924 37.483 4.19924C37.1345 4.55924 36.8638 5.04724 36.6653 5.66324C36.4656 6.28628 36.3647 6.9482 36.3678 7.61524C36.3678 8.09324 36.4592 8.44924 36.6418 8.68624C36.8245 8.92324 37.0825 9.04624 37.4118 9.04624L37.4101 9.04624ZM43.3948 6.27724L46.4588 2.89924L47.6301 2.89924L44.8995 5.83624L46.6179 9.79224L45.5304 9.79224L44.1614 6.49524L43.2767 7.26724L42.7999 9.78724L41.8113 9.78724L43.7324 0.000243921L44.7211 0.000243904L43.9712 3.78524L43.3755 6.26724L43.3956 6.26724L43.3956 6.27624L43.3948 6.27724ZM49.8981 9.91824C49.1834 9.91824 48.6237 9.69124 48.2149 9.23124C47.806 8.77124 47.6032 8.14124 47.6032 7.33124C47.6022 6.54568 47.75 5.77 48.0356 5.06224C48.3255 4.33724 48.7067 3.77324 49.1868 3.37524C49.6467 2.97964 50.2 2.76882 50.7669 2.77324C51.3626 2.77324 51.8067 2.91024 52.1083 3.19024C52.4099 3.47024 52.5565 3.85824 52.5565 4.35524C52.5565 5.10824 52.2348 5.70024 51.588 6.13224C50.9412 6.56424 50.0204 6.77624 48.8215 6.77624L48.6313 6.77624L48.6078 7.27824C48.6078 7.82824 48.7268 8.25424 48.9647 8.56724C49.2027 8.88024 49.5722 9.03124 50.0724 9.03124C50.3266 9.02981 50.5798 8.99153 50.8264 8.91724C51.0845 8.84124 51.4062 8.70424 51.7908 8.50024L51.7908 9.41924C51.4783 9.58288 51.1541 9.71274 50.8222 9.80724C50.5407 9.88224 50.2349 9.91624 49.8972 9.91624L49.8981 9.91824ZM50.7083 3.67424C50.3069 3.67424 49.9341 3.87324 49.5805 4.26624C49.227 4.65924 48.9614 5.20924 48.7745 5.91024L48.8458 5.91024C49.7305 5.91024 50.41 5.78724 50.8817 5.53624C51.3534 5.28524 51.588 4.92524 51.588 4.45124C51.5896 4.34557 51.5712 4.24082 51.534 4.14488C51.4969 4.04893 51.442 3.96427 51.3735 3.89724C51.2302 3.75024 51.0124 3.67424 50.7066 3.67424L50.7083 3.67424ZM56.4056 9.80424L55.4287 9.80424L56.7901 2.91124L57.7671 2.91124L56.4056 9.80424ZM57.0608 1.14424C57.0608 0.907244 57.1244 0.718244 57.2476 0.571244C57.3708 0.424244 57.5333 0.348244 57.7319 0.348244C58.0729 0.348244 58.2438 0.538244 58.2438 0.912244C58.2465 1.02011 58.2306 1.1275 58.1972 1.22776C58.1637 1.32803 58.1135 1.41907 58.0494 1.49524C57.9187 1.65624 57.7679 1.73224 57.597 1.73224C57.442 1.73224 57.3155 1.68024 57.2116 1.57624C57.1127 1.48124 57.0608 1.33324 57.0608 1.14424ZM60.4113 9.05524C60.6258 9.05524 60.9031 9.00324 61.2491 8.88924L61.2491 9.69924C61.0901 9.76585 60.9267 9.81669 60.7607 9.85124C60.6078 9.88814 60.4524 9.90889 60.2965 9.91324C59.8122 9.91324 59.4394 9.79024 59.1813 9.53924C58.9233 9.28824 58.7926 8.91824 58.7926 8.42124C58.7926 8.14624 58.8286 7.82924 58.8956 7.47824L59.6338 3.69324L58.6334 3.69324L58.7163 3.23324L59.7921 2.74024L60.5185 1.30524L61.0899 1.30524L60.7682 2.89224L62.3634 2.89224L62.2126 3.69324L60.6207 3.69324L59.8709 7.49324C59.7996 7.85824 59.7678 8.13324 59.7678 8.32224C59.7678 8.55924 59.8231 8.73924 59.9387 8.86224C60.0535 8.99524 60.2085 9.05524 60.4113 9.05524ZM67.026 9.91824C66.3113 9.91824 65.7517 9.69124 65.3428 9.23124C64.9339 8.77124 64.7312 8.14124 64.7312 7.33124C64.7301 6.54568 64.8779 5.77 65.1635 5.06224C65.4534 4.33724 65.8346 3.77324 66.3147 3.37524C66.7746 2.97964 67.328 2.76882 67.8948 2.77324C68.4905 2.77324 68.9346 2.91024 69.2362 3.19024C69.5378 3.47024 69.6845 3.85824 69.6845 4.35524C69.6845 5.10824 69.3627 5.70024 68.7159 6.13224C68.0691 6.56424 67.1483 6.77624 65.9494 6.77624L65.7592 6.77624L65.7349 7.27824C65.7349 7.82824 65.8539 8.25424 66.0918 8.56724C66.3298 8.88024 66.6992 9.03124 67.1994 9.03124C67.4537 9.02981 67.7069 8.99153 67.9535 8.91724C68.2115 8.84124 68.5333 8.70424 68.9178 8.50024L68.9178 9.41924C68.6054 9.58288 68.2812 9.71274 67.9493 9.80724C67.6678 9.88224 67.362 9.91624 67.0243 9.91624L67.026 9.91824ZM67.8354 3.67424C67.4349 3.67424 67.0612 3.87324 66.7085 4.26624C66.3557 4.65924 66.0893 5.20924 65.9025 5.91024L65.9737 5.91024C66.8584 5.91024 67.5379 5.78724 68.0096 5.53624C68.4813 5.28524 68.7159 4.92524 68.7159 4.45124C68.7175 4.34557 68.6991 4.24082 68.6619 4.14488C68.6248 4.04893 68.5699 3.96427 68.5014 3.89724C68.3582 3.75024 68.137 3.67424 67.8354 3.67424ZM73.6198 2.77324C73.9572 2.76699 74.289 2.87556 74.5766 3.08624C74.8548 3.29424 75.0726 3.59324 75.2276 3.98124L75.2913 3.98124L75.68 2.90124L76.4182 2.90124L75.0609 9.79424L74.2867 9.79424L74.4375 8.48224L74.3898 8.48224C73.6952 9.44424 72.9646 9.92224 72.1946 9.92224C71.6551 9.92224 71.2303 9.71424 70.9245 9.30124C70.6186 8.88824 70.4637 8.31624 70.4637 7.59524C70.4578 6.76101 70.5985 5.93458 70.8767 5.16924C71.1507 4.42024 71.5319 3.83824 72.0195 3.41624C72.5071 2.99424 73.04 2.77224 73.6189 2.77224L73.6198 2.77324ZM72.5122 9.04624C72.8892 9.04624 73.262 8.85224 73.6357 8.46324C74.0094 8.07424 74.3102 7.56824 74.5448 6.94724C74.7794 6.32624 74.8941 5.70124 74.8941 5.07624C74.8941 4.64524 74.7869 4.29924 74.5691 4.04324C74.3512 3.78724 74.0647 3.65924 73.7119 3.65924C73.3073 3.65924 72.9336 3.83924 72.5842 4.19924C72.2348 4.55924 71.9651 5.04724 71.7665 5.66324C71.5668 6.28628 71.466 6.9482 71.4691 7.61524C71.4691 8.09324 71.5604 8.44924 71.743 8.68624C71.9257 8.92324 72.1829 9.04624 72.5122 9.04624ZM80.9199 7.83724C80.9199 8.49124 80.7054 9.00224 80.2772 9.36724C79.8491 9.73224 79.245 9.91724 78.4633 9.91724C77.8081 9.91724 77.2133 9.77024 76.6854 9.48124L76.6854 8.48624C76.9636 8.66598 77.2598 8.80275 77.5668 8.89324C77.8844 8.98824 78.1743 9.04024 78.4399 9.04024C78.9283 9.04024 79.297 8.93624 79.5475 8.72724C79.798 8.51824 79.9203 8.24824 79.9203 7.92224C79.9226 7.81071 79.9058 7.6998 79.871 7.59629C79.8361 7.49278 79.7839 7.39885 79.7176 7.32024C79.5827 7.15924 79.2886 6.93224 78.8362 6.64724C78.3318 6.33924 77.9749 6.04124 77.7646 5.74724C77.5543 5.45324 77.4512 5.10724 77.4512 4.70524C77.4453 4.43256 77.4959 4.16235 77.5983 3.91852C77.7007 3.67468 77.8519 3.46474 78.0385 3.30724C78.4315 2.95624 78.9476 2.77624 79.5869 2.77624C80.2496 2.77624 80.8931 2.93224 81.508 3.24024L81.1947 4.10224L80.8688 3.94624C80.4758 3.76624 80.051 3.67624 79.5869 3.67624C79.2258 3.67624 78.9442 3.76624 78.7373 3.95124C78.5304 4.13624 78.4273 4.36824 78.4273 4.65724C78.4254 4.76906 78.4428 4.88015 78.4782 4.98367C78.5137 5.0872 78.5665 5.18098 78.6334 5.25924C78.7717 5.42524 79.054 5.64324 79.4872 5.90824C79.9044 6.15924 80.2018 6.37724 80.3803 6.55724C80.5588 6.73724 80.6937 6.93124 80.785 7.14024C80.8721 7.33924 80.9199 7.57724 80.9199 7.83724ZM82.3869 2.89824L83.3672 2.89824L83.7995 6.32824C83.8389 6.61724 83.8749 7.04324 83.9143 7.60724L83.9696 8.97124L84.0056 8.97124L84.5134 7.71124L84.9624 6.73024L86.8559 2.89724L87.8915 2.89724L83.8305 10.9652C83.4694 11.6852 83.1125 12.1872 82.7589 12.4672C82.4054 12.7472 81.9806 12.8892 81.4846 12.8892C81.2031 12.8892 80.9333 12.8462 80.671 12.7562L80.671 11.9082C80.9201 11.9847 81.1763 12.023 81.4335 12.0222C81.751 12.0222 82.025 11.9182 82.2512 11.7052C82.4774 11.4922 82.6994 11.1792 82.9139 10.7672L83.3588 9.90924L82.3861 2.89724L82.3869 2.89824Z" fill="#10847E"/>
</g>
<defs>
<clipPath id="clip0_0_44">
<rect width="124" height="41" fill="white" transform="translate(0.879517 0.000244141)"/>
</clipPath>
</defs>
</svg>
